<svg class="h-full pl-4 md:pl-0 md:mx-0 md:pr-8 svelte-1161ji9" viewBox="0 0 474 109" fill="none" xmlns="http://www.w3.org/2000/svg"><path d="M59.07 82.77C54.51 75.76 46.12 73.91 39.28 73.91C32.56 73.91 23.57 75.77 23.57 83.57C23.57 91.38 32.56 93.23 39.28 93.23C46.11 93.23 54.51 91.38 59.07 84.23V82.77ZM81.98 64.65V91.9C81.98 97.19 82.82 101.56 84.86 105.79H60.88C59.56 103.54 58.6 100.76 58.6 98.25V98.12C53.56 103.94 44.33 108.44 32.57 108.44C18.54 108.44 0.669983 102.35 0.669983 83.57C0.669983 64.78 18.54 58.7 32.57 58.7C44.32 58.7 53.56 63.2 58.6 69.15V64.39C58.6 53.28 51.16 47.99 36.65 47.99C28.73 47.99 20.94 49.18 12.79 53.68L7.38998 37.14C16.38 32.38 30.06 29.6 41.57 29.6C66.87 29.59 81.98 42.03 81.98 64.65Z" fill="#FF6496" class="svelte-1161ji9"></path><path d="M117.43 105.79H93.68V32.95H117.43V105.79ZM91.76 13.24C91.76 5.83001 97.39 0.940002 105.43 0.940002C113.34 0.940002 118.98 5.84001 118.98 13.24C118.98 20.64 113.34 25.54 105.43 25.54C97.4 25.55 91.76 20.65 91.76 13.24Z" fill="#FF6496" class="svelte-1161ji9"></path><path d="M345 71.52C347.46 71.71 350.04 71.18 352.45 70.73C354.98 70.26 357.48 69.62 359.89 68.72C362.43 67.78 364.84 66.59 366.95 64.88C368.88 63.31 370.39 61.43 371.21 59.05C372.96 53.99 371.36 46.98 363.26 45.97C357.51 45.25 350.08 47.24 346.36 54.91C344.43 58.89 343.82 63.13 344.25 67.51C344.39 68.86 344.75 70.19 345 71.52ZM351.55 84.86C352.47 86.99 354.01 88.01 355.74 88.79C358.18 89.9 360.81 90.25 363.44 90.37C371.66 90.73 379.39 88.96 386.52 84.8C389.08 83.31 391.37 81.46 393.32 79.21C393.56 78.93 393.82 78.67 394.26 78.21C394.35 78.83 394.45 79.23 394.45 79.62C394.46 85.7 394.42 91.78 394.49 97.86C394.5 99.1 394.04 99.8 393.05 100.45C387.71 103.93 381.85 106.04 375.62 107.17C367.13 108.71 358.65 108.82 350.24 106.67C334.9 102.75 324.68 91.23 322.52 75.55C321.6 68.83 321.73 62.15 323.58 55.61C327.61 41.35 337.07 32.75 351.45 29.66C359.48 27.93 367.54 28.23 375.44 30.69C378.83 31.74 381.97 33.29 384.75 35.5C391.48 40.87 394.16 47.99 393.54 56.42C392.96 64.21 389.23 70.3 383.11 75.02C377.84 79.08 371.8 81.48 365.37 82.88C361.89 83.64 358.32 84.02 354.79 84.54C353.81 84.67 352.81 84.73 351.55 84.86Z" fill="#FF6496" class="svelte-1161ji9"></path><path d="M424.4 71.52C426.86 71.71 429.44 71.18 431.86 70.73C434.39 70.26 436.89 69.62 439.3 68.72C441.84 67.78 444.25 66.59 446.36 64.88C448.29 63.31 449.8 61.43 450.62 59.05C452.37 53.99 450.77 46.98 442.67 45.97C436.92 45.25 429.49 47.24 425.77 54.91C423.84 58.89 423.23 63.13 423.66 67.51C423.8 68.86 424.15 70.19 424.4 71.52ZM430.96 84.86C431.88 86.99 433.42 88.01 435.15 88.79C437.59 89.9 440.22 90.25 442.85 90.37C451.07 90.73 458.8 88.96 465.93 84.8C468.49 83.31 470.78 81.46 472.73 79.21C472.97 78.93 473.23 78.67 473.67 78.21C473.76 78.83 473.86 79.23 473.86 79.62C473.87 85.7 473.83 91.78 473.9 97.86C473.91 99.1 473.45 99.8 472.46 100.45C467.12 103.93 461.26 106.04 455.03 107.17C446.54 108.71 438.06 108.82 429.65 106.67C414.31 102.75 404.09 91.23 401.93 75.55C401 68.83 401.14 62.15 402.99 55.61C407.02 41.35 416.48 32.75 430.86 29.66C438.89 27.93 446.94 28.23 454.85 30.69C458.24 31.74 461.38 33.29 464.16 35.5C470.89 40.87 473.57 47.99 472.95 56.42C472.37 64.21 468.64 70.3 462.52 75.02C457.25 79.08 451.21 81.48 444.78 82.88C441.3 83.64 437.73 84.02 434.2 84.54C433.21 84.67 432.21 84.73 430.96 84.86Z" fill="#FF6496" class="svelte-1161ji9"></path><path d="M183.49 31.46C166.11 31.46 157.02 41.93 153.28 54.03H152.88L153.28 32.94H129.49V105.8H153.28V77.33C153.28 64.64 159.83 51.81 175.07 51.81C177.95 51.81 180.32 52.23 182.25 53.05L189.59 31.88C187.69 31.62 185.68 31.46 183.49 31.46Z" fill="#FF6496" class="svelte-1161ji9"></path><path d="M219.13 40.84C221.95 37.55 228.21 30.2 242.29 30.2C255.75 30.2 260.6 35.21 264.99 39.75C269.69 35.84 276.26 30.2 289.25 30.2C302.71 30.2 309.6 36.93 312.1 41.94C314.14 46.32 314.29 51.96 314.29 60.72V105.81H290.5V71.05C290.5 66.36 290.5 60.74 289.56 57.61C287.37 50.72 280.95 50.26 279.07 50.26C276.72 50.26 273.59 50.89 271.24 52.76C266.7 56.36 266.7 60.57 266.7 69.48V105.81H243.4V65.57C243.4 61.97 243.24 57.61 241.05 54.48C239.17 51.97 235.08 50.25 231.17 50.25C229.29 50.25 226.79 50.72 224.6 52.13C219.28 55.73 219.12 61.82 219.12 67.45V105.82H195.82V32.39H219.12V40.84H219.13Z" fill="#FF6496" class="svelte-1161ji9"></path></svg>